<svg width="19" height="14" viewBox="0 0 19 14" fill="none" xmlns="http://www.w3.org/2000/svg">
<path d="M1.01039 7.90343L6.64093 13.534C6.79263 13.6805 6.99582 13.7616 7.20672 13.7597C7.41762 13.7579 7.61937 13.6733 7.7685 13.5242C7.91764 13.375 8.00223 13.1733 8.00406 12.9624C8.0059 12.7515 7.92482 12.5483 7.7783 12.3966L3.5208 8.13911H17.6663C17.8797 8.13911 18.0843 8.05436 18.2351 7.90351C18.386 7.75267 18.4707 7.54807 18.4707 7.33474C18.4707 7.12141 18.386 6.91682 18.2351 6.76597C18.0843 6.61512 17.8797 6.53038 17.6663 6.53038H3.5208L7.7783 2.27288C7.85512 2.19868 7.9164 2.10993 7.95856 2.01179C8.00072 1.91365 8.0229 1.80811 8.02383 1.7013C8.02476 1.5945 8.00441 1.48858 7.96396 1.38973C7.92352 1.29088 7.86379 1.20107 7.78827 1.12554C7.71275 1.05002 7.62294 0.990292 7.52408 0.949847C7.42523 0.909403 7.31931 0.889051 7.21251 0.889979C7.10571 0.890908 7.00016 0.913098 6.90202 0.955254C6.80389 0.99741 6.71513 1.05869 6.64093 1.13551L1.01039 6.76606C0.859591 6.9169 0.774879 7.12145 0.774879 7.33474C0.774879 7.54803 0.859591 7.75259 1.01039 7.90343Z" fill="white"/>
</svg>
